<svg width="108" height="32" viewBox="0 0 108 32" fill="none" xmlns="http://www.w3.org/2000/svg">
<path fill-rule="evenodd" clip-rule="evenodd" d="M60.9277 20.5076C60.3949 21.017 60.1279 21.7691 60.1279 22.7642V22.7648C60.1279 23.7239 60.4003 24.4676 60.9451 24.9944C61.4902 25.5212 62.2603 25.7846 63.2551 25.7846C64.2259 25.7846 64.9843 25.5152 65.5291 24.9764C66.0742 24.4376 66.3466 23.7005 66.3466 22.7645C66.3466 21.7934 66.0769 21.0473 65.5387 20.5253C64.9987 20.0042 64.2379 19.7438 63.2557 19.7438C62.2366 19.7438 61.4608 19.9985 60.9277 20.5076ZM6.75549 15.4796C6.75549 22.2671 9.84669 25.6601 16.0297 25.6601H16.03C17.3917 25.6601 18.52 25.553 19.4146 25.34C20.3086 25.127 21.1939 24.7421 22.0705 24.185V19.5479C21.1822 20.1404 20.2936 20.5754 19.4056 20.8538C18.5173 21.1322 17.5516 21.2717 16.5097 21.2717C13.6903 21.2717 12.2812 19.3289 12.2812 15.4439C12.2812 11.4404 13.6903 9.43851 16.5097 9.43851C17.2435 9.43851 17.9782 9.54801 18.7126 9.76701C19.4467 9.98631 20.2405 10.2674 21.0937 10.6109L22.6927 6.41751C20.8687 5.51751 18.8077 5.06751 16.5097 5.06751C13.3705 5.06751 10.96 5.95881 9.27849 7.74171C7.59609 9.52461 6.75549 12.1037 6.75549 15.4796ZM24.8068 25.3046H40.4953V21.1646H31.2208L40.1752 8.95851V5.44071H25.3573V9.58071H34.0099L24.8068 22.1066V25.3046ZM51.4042 25.6601C45.2206 25.6601 42.1297 22.2671 42.1297 15.4796C42.1297 12.1037 42.9703 9.52461 44.6527 7.74171C46.3342 5.95881 48.7447 5.06751 51.8839 5.06751C54.1819 5.06751 56.2429 5.51751 58.0669 6.41751L56.4679 10.6109C55.6147 10.2674 54.8209 9.98631 54.0868 9.76701C53.3524 9.54801 52.6177 9.43851 51.8839 9.43851C49.0645 9.43851 47.6551 11.4404 47.6551 15.4439C47.6551 19.3289 49.0645 21.2717 51.8839 21.2717C52.9258 21.2717 53.8915 21.1322 54.7798 20.8538C55.6678 20.5754 56.5564 20.1404 57.4447 19.5479V24.185C56.5681 24.7421 55.6828 25.127 54.7888 25.34C53.8942 25.553 52.7659 25.6601 51.4042 25.6601Z" fill="#D3121A"/>
<path fill-rule="evenodd" clip-rule="evenodd" d="M67.4176 15.4796C67.4176 22.2671 70.5085 25.6601 76.6921 25.6601C78.0538 25.6601 79.1821 25.553 80.0767 25.34C80.9707 25.127 81.856 24.7421 82.7326 24.185V19.5479C81.8443 20.1404 80.9557 20.5754 80.0677 20.8538C79.1794 21.1322 78.2137 21.2717 77.1718 21.2717C74.3524 21.2717 72.943 19.3289 72.943 15.4439C72.943 11.4404 74.3524 9.4385 77.1718 9.4385C77.9056 9.4385 78.6403 9.54799 79.3747 9.76699C80.1091 9.98629 80.9026 10.2674 81.7555 10.6109L83.3545 6.4175C81.5305 5.5175 79.4695 5.0675 77.1715 5.0675C74.0326 5.0675 71.6218 5.9588 69.9406 7.7417C68.2582 9.5246 67.4176 12.1037 67.4176 15.4796ZM85.4695 25.3046H101.158H101.158V21.1646H91.8835L100.838 8.95849V5.44069H86.0197V9.58069H94.6726L85.4695 22.1066V25.3046Z" fill="#205D89"/>
</svg>
