<svg width="94" height="32" viewBox="0 0 94 32" fill="none" xmlns="http://www.w3.org/2000/svg">
<rect width="80.7333" height="21" transform="translate(6.93335 5)" fill="#CC0000"/>
<path fill-rule="evenodd" clip-rule="evenodd" d="M30.2935 11.4795L30.314 11.4269C30.8708 9.99465 31.3611 8.73334 32.7974 8.73334C34.3144 8.73334 34.8054 9.99624 35.3626 11.4296L35.382 11.4795L38.2897 19.3949C38.6935 20.4449 38.7743 20.8487 38.7743 21.2526C38.7743 21.9795 38.2089 22.4641 37.3205 22.4641C36.3512 22.4641 36.0282 21.818 35.7051 21.0103L35.3012 19.7987H30.2935L29.8897 21.0103C29.6474 21.818 29.3243 22.4641 28.2743 22.4641C27.3859 22.4641 26.8205 21.9795 26.8205 21.2526C26.8205 20.768 26.9012 20.4449 27.3051 19.3949L30.2935 11.4795ZM12.3628 10.8333C12.6051 9.21795 13.5743 8.89488 14.382 8.89488C15.9166 8.89488 16.2397 9.78334 17.0474 12.2064L18.5012 16.8103L19.9551 12.2064C20.7628 9.78334 21.0859 8.89488 22.6205 8.89488C23.4282 8.89488 24.3166 9.21795 24.6397 10.8333L25.8512 17.6987C26.0935 19.0718 26.3359 20.6064 26.3359 21.091C26.3359 21.7372 25.7705 22.5449 24.882 22.5449C23.5089 22.5449 23.2666 21.5756 23.1051 20.5256L22.2166 14.5487L20.1974 21.1718C19.8743 22.141 19.4705 22.5449 18.5012 22.5449C17.6128 22.5449 17.1282 22.141 16.8051 21.1718L14.7859 14.5487L13.8974 20.5256C13.7359 21.5756 13.4935 22.5449 12.1205 22.5449C11.232 22.5449 10.6666 21.7372 10.6666 21.091C10.6666 20.6064 10.9089 19.1526 11.1512 17.6987L12.3628 10.8333ZM31.2628 17.0526L32.9589 12.1256L34.4936 17.0526H31.2628ZM39.5012 10.5103C39.5012 9.46026 40.1474 8.89488 41.0359 8.89488C41.9243 8.89488 42.5705 9.46026 42.5705 10.5103V19.5564H45.882C46.8512 19.5564 47.4166 20.1218 47.4166 20.9295C47.4166 21.7372 46.8512 22.3026 45.882 22.3026H41.1166C40.3089 22.3026 39.582 21.7372 39.582 20.768V10.5103H39.5012ZM49.4359 8.89488C48.5474 8.89488 47.9012 9.46026 47.9012 10.5103H47.982V20.768C47.982 21.7372 48.7089 22.3026 49.5166 22.3026H54.282C55.2512 22.3026 55.8166 21.7372 55.8166 20.9295C55.8166 20.1218 55.2512 19.5564 54.282 19.5564H50.9705V10.5103C50.9705 9.46026 50.3243 8.89488 49.4359 8.89488ZM58.482 19.4756C59.3705 19.4756 60.0974 20.2026 60.0974 21.091C60.0974 21.9795 59.3705 22.7064 58.482 22.7064C57.5936 22.7064 56.8666 21.9795 56.8666 21.091C56.8666 20.2026 57.5936 19.4756 58.482 19.4756ZM62.6012 22.4641C63.4897 22.4641 64.1359 21.8987 64.1359 20.8487V16.891H69.7897V20.8487C69.7897 21.8987 70.4359 22.4641 71.3243 22.4641C72.2128 22.4641 72.8589 21.8987 72.8589 20.8487V10.5103C72.8589 9.46026 72.2128 8.89488 71.3243 8.89488C70.4359 8.89488 69.7897 9.46026 69.7897 10.5103V14.1449H64.1359V10.5103C64.1359 9.46026 63.4897 8.89488 62.6012 8.89488C61.7128 8.89488 61.0666 9.46026 61.0666 10.5103V20.8487C61.0666 21.8987 61.7128 22.4641 62.6012 22.4641ZM74.1512 10.5103C74.1512 9.54103 74.8782 8.97565 75.6859 8.97565H79.3205C81.9859 8.97565 83.7628 10.591 83.7628 13.0949C83.7628 15.0333 82.5513 16.4872 80.6128 16.8103L83.2782 19.6372C83.682 20.1218 83.9243 20.4449 83.9243 20.9295C83.9243 21.3333 83.5205 22.3026 82.3897 22.3026C81.582 22.3026 81.3397 22.0603 80.9359 21.5756L77.2205 16.891V20.768C77.2205 21.818 76.5743 22.3833 75.6859 22.3833C74.7974 22.3833 74.1512 21.818 74.1512 20.768V10.5103ZM79.2397 14.791H77.2205V11.8026H79.2397C80.0474 11.8026 80.7743 12.368 80.7743 13.2564C80.7743 14.1449 80.2089 14.791 79.2397 14.791Z" fill="white"/>
</svg>
