<svg width="93" height="32" viewBox="0 0 93 32" fill="none" xmlns="http://www.w3.org/2000/svg">
<rect width="80.7333" height="21" transform="translate(6.19995 5)" fill="#CC0000"/>
<path fill-rule="evenodd" clip-rule="evenodd" d="M29.1717 11.2305C29.14 11.3128 29.1081 11.3959 29.0755 11.4795L26.1678 19.2333C25.8448 20.2833 25.764 20.6872 25.764 21.091C25.764 21.818 26.3294 22.3026 27.2178 22.3026C28.1871 22.3026 28.5102 21.6564 28.7525 20.8487L29.0755 19.6372H34.0025L34.4063 20.8487C34.6486 21.6564 34.9717 22.3026 35.9409 22.3026C36.8294 22.3026 37.3948 21.818 37.3948 21.091C37.3948 20.6064 37.3948 20.2833 36.9909 19.2333L34.0832 11.4795C33.5986 10.0256 33.114 8.73334 31.5794 8.73334C30.133 8.73334 29.6911 9.88128 29.1717 11.2305ZM13.4063 8.97565C12.6794 8.97565 11.7102 9.29872 11.4678 10.8333L10.4178 17.618C10.1755 18.991 9.93323 20.5256 9.93323 20.9295C9.93323 21.6564 10.4178 22.3833 11.3063 22.3833C12.5986 22.3833 12.8409 21.4949 13.0025 20.4449L13.8909 14.6295L15.9102 21.091C16.1525 22.0603 16.6371 22.4641 17.5255 22.4641C18.414 22.4641 18.8178 22.0603 19.1409 21.091L21.1602 14.6295L22.0486 20.4449C22.1294 21.4141 22.3717 22.3833 23.7448 22.3833C24.6332 22.3833 25.1178 21.5756 25.1178 20.9295C25.1178 20.4449 24.8755 18.991 24.6332 17.618L23.4217 10.8333C23.1794 9.29872 22.2102 8.97565 21.4832 8.97565C19.9486 8.97565 19.6255 9.86411 18.8986 12.2064L17.4448 16.7295L15.9909 12.2064C15.264 9.86411 14.9409 8.97565 13.4063 8.97565ZM31.6602 12.0449L30.0448 16.891H33.1948L31.6602 12.0449ZM39.5755 8.89488C38.6871 8.89488 38.0409 9.46026 38.0409 10.5103H38.1217V20.6064C38.1217 21.5756 38.8486 22.141 39.6563 22.141H44.3409C45.3102 22.141 45.8755 21.5756 45.8755 20.768C45.8755 19.8795 45.3102 19.3949 44.3409 19.3949H41.1102V10.5103C41.1102 9.46026 40.464 8.89488 39.5755 8.89488ZM46.2794 10.5103C46.2794 9.46026 46.9255 8.89488 47.814 8.89488C48.7025 8.89488 49.3486 9.46026 49.3486 10.5103V19.3949H52.5794C53.5486 19.3949 54.114 19.8795 54.114 20.768C54.114 21.5756 53.5486 22.141 52.5794 22.141H47.8948C47.0871 22.141 46.3601 21.5756 46.3601 20.6064V10.5103H46.2794ZM58.314 20.8487C58.314 19.9603 57.5871 19.2333 56.6986 19.2333C55.8102 19.2333 55.0832 19.9603 55.0832 20.8487C55.0832 21.7372 55.8102 22.4641 56.6986 22.4641C57.5871 22.4641 58.314 21.7372 58.314 20.8487ZM61.9479 20.6064C61.9479 21.6564 61.3832 22.2218 60.5755 22.2218C59.7678 22.2218 59.1217 21.6564 59.1217 20.6064V10.5103C59.1217 9.46026 59.7678 8.89488 60.5755 8.89488C61.3832 8.89488 62.0294 9.46026 62.0294 10.5103V14.0641H67.5217V10.5103C67.5217 9.46026 68.1678 8.89488 68.9755 8.89488C69.7832 8.89488 70.4294 9.46026 70.4294 10.5103V20.6872C70.4294 21.7372 69.7832 22.3026 68.9755 22.3026C68.1678 22.3026 67.5217 21.7372 67.5217 20.6872V16.8103H61.9486L61.9479 20.6064ZM77.5371 19.4756C76.0832 19.4756 74.7112 18.5872 74.7112 16.8103L74.7102 10.5103C74.7102 9.46026 74.1448 8.89488 73.2563 8.89488C72.4486 8.89488 71.8025 9.46026 71.8025 10.5103V16.891C71.8025 20.3641 74.1448 22.4641 77.4563 22.4641C80.7678 22.4641 83.1101 20.3641 83.1101 16.891V10.5103C83.1101 9.46026 82.5448 8.89488 81.6563 8.89488C80.8486 8.89488 80.2025 9.46026 80.2025 10.5103V16.8103C80.2025 18.5064 78.9909 19.4756 77.5371 19.4756Z" fill="white"/>
</svg>
