<svg width="93" height="32" viewBox="0 0 93 32" fill="none" xmlns="http://www.w3.org/2000/svg">
<rect width="80.7333" height="21" transform="translate(6 5)" fill="#CC0000"/>
<path fill-rule="evenodd" clip-rule="evenodd" d="M32.2679 8.26666C30.6525 8.26666 30.1679 9.55897 29.6025 11.0936L26.614 19.2513C26.2102 20.382 26.1294 20.7051 26.1294 21.1897C26.1294 21.9974 26.7756 22.482 27.664 22.482C28.6333 22.482 28.9564 21.8359 29.2794 20.9474L29.6833 19.7359H34.8525L35.2564 20.9474C35.4987 21.8359 35.8217 22.482 36.8717 22.482C37.7602 22.482 38.4064 21.9974 38.4064 21.1897C38.4064 20.7051 38.3256 20.382 37.9217 19.2513L34.9333 11.0936C34.3679 9.55897 33.8833 8.26666 32.2679 8.26666ZM13.3679 8.50897C12.5602 8.50897 11.591 8.83205 11.2679 10.4474L10.2179 17.4744C9.97558 18.9282 9.73328 20.4628 9.73328 20.9474C9.73328 21.5936 10.2987 22.4013 11.1871 22.4013C12.5602 22.4013 12.8025 21.3513 12.964 20.3013L13.8525 14.2436L15.9525 21.0282C16.2756 21.9974 16.6794 22.4013 17.6487 22.4013C18.5371 22.4013 19.0217 21.9974 19.3448 21.0282L21.4448 14.2436L22.3333 20.3013C22.414 21.432 22.7371 22.4013 24.1102 22.4013C24.9987 22.4013 25.564 21.6744 25.564 20.9474C25.564 20.4628 25.3217 18.9282 25.0794 17.4744L23.8679 10.4474C23.5448 8.83205 22.5756 8.50897 21.7679 8.50897C20.2333 8.50897 19.9102 9.39743 19.1025 11.9013L17.5679 16.6667L16.0333 11.9013C15.3064 9.39743 14.9025 8.50897 13.3679 8.50897ZM40.5871 8.4282C39.6987 8.4282 39.0525 8.99359 39.0525 10.1244V20.7859C39.0525 21.7551 39.7794 22.3205 40.5871 22.3205H45.514C46.4833 22.3205 47.0487 21.7551 47.0487 20.8667C47.0487 19.9782 46.4833 19.4128 45.514 19.4128H42.1217V10.1244C42.1217 8.99359 41.4756 8.4282 40.5871 8.4282ZM47.6948 10.1244C47.6948 8.99359 48.341 8.4282 49.2294 8.4282C50.1179 8.50897 50.8448 8.99359 50.8448 10.1244V19.4128H54.2371C55.2064 19.4128 55.7717 19.9782 55.7717 20.8667C55.7717 21.7551 55.2064 22.3205 54.2371 22.3205H49.2294C48.4217 22.3205 47.6948 21.7551 47.6948 20.7859V10.1244ZM60.3756 20.9474C60.3756 20.059 59.5679 19.2513 58.6794 19.2513C57.7102 19.2513 56.9833 20.059 56.9833 20.9474C56.9833 21.9167 57.791 22.6436 58.6794 22.6436C59.5679 22.6436 60.3756 21.8359 60.3756 20.9474ZM67.241 8.26666C69.0987 8.26666 71.3602 8.83205 71.3602 10.4474C71.3602 11.1744 70.7948 11.9013 69.9871 11.9013C69.6698 11.9013 69.3371 11.7782 68.9622 11.6394C68.4782 11.4603 67.9237 11.2551 67.241 11.2551C64.7371 11.2551 63.6871 13.2744 63.6871 15.4551C63.6871 17.6359 64.8179 19.4936 66.9179 19.4936C68.0959 19.4936 68.6774 19.2549 69.1336 19.0677C69.428 18.9469 69.6703 18.8474 69.9871 18.8474C71.1987 18.8474 71.3602 19.8974 71.3602 20.3013C71.3602 21.9974 68.7756 22.6436 66.9987 22.6436C62.6371 22.6436 60.2141 19.4128 60.2141 15.4551C60.3756 11.2551 63.1217 8.26666 67.241 8.26666ZM82.5871 20.8667C82.5871 19.9782 81.941 19.4128 80.891 19.4128H75.8025L80.8102 12.7897C81.6987 11.659 82.2641 10.8513 82.2641 10.2051C82.2641 9.72051 82.0217 8.67051 80.3256 8.67051H73.6217C72.491 8.67051 71.9256 9.23589 71.9256 10.0436C71.9256 10.8513 72.5717 11.4167 73.6217 11.4167H78.2256L72.3294 19.2513C72.3089 19.2821 72.2886 19.3123 72.2688 19.3419C71.9765 19.778 71.764 20.095 71.764 20.6244C71.764 21.5936 72.2487 22.3205 73.9448 22.3205H80.891C82.0217 22.3205 82.5871 21.7551 82.5871 20.8667ZM32.3487 11.7397L30.6525 16.7474H33.8833L32.3487 11.7397Z" fill="white"/>
</svg>
