<svg width="94" height="32" viewBox="0 0 94 32" fill="none" xmlns="http://www.w3.org/2000/svg">
<rect width="80.7333" height="21" transform="translate(6.7334 5)" fill="#CC0000"/>
<path fill-rule="evenodd" clip-rule="evenodd" d="M33.0821 8.26666C31.5474 8.26666 31.0628 9.55897 30.4974 11.0936L27.4282 19.2513C27.0244 20.382 26.9436 20.7051 26.9436 21.1897C26.9436 21.9974 27.5898 22.482 28.4782 22.482C29.4474 22.482 29.7705 21.8359 30.0936 20.9474L30.4974 19.7359H35.6667L36.0705 20.9474C36.3128 21.8359 36.6359 22.482 37.6859 22.482C38.5744 22.482 39.2205 21.9974 39.2205 21.1897C39.2205 20.7051 39.1398 20.382 38.7359 19.2513L35.7474 11.0936C35.1821 9.55897 34.6974 8.26666 33.0821 8.26666ZM14.1821 8.50897C13.3744 8.50897 12.4051 8.83205 12.0821 10.4474L10.9513 17.4744C10.709 18.9282 10.4667 20.4628 10.4667 20.9474C10.4667 21.5936 11.0321 22.4013 11.9205 22.4013C13.2936 22.4013 13.5359 21.3513 13.6974 20.3013L14.5859 14.2436L16.6859 21.0282C17.009 21.9974 17.4128 22.4013 18.3821 22.4013C19.2705 22.4013 19.7551 21.9974 20.0782 21.0282L22.259 14.2436L23.1474 20.3013C23.2282 21.432 23.5513 22.4013 24.9244 22.4013C25.8128 22.4013 26.3782 21.6744 26.3782 20.9474C26.3782 20.4628 26.1359 18.9282 25.8936 17.4744L24.6821 10.4474C24.359 8.83205 23.3898 8.50897 22.5821 8.50897C21.0474 8.50897 20.7244 9.39743 19.9167 11.9013L18.3821 16.6667L16.8474 11.9013C16.1205 9.39743 15.7167 8.50897 14.1821 8.50897ZM31.4667 16.7474H34.7782L33.1628 11.7397L31.4667 16.7474ZM41.4013 8.4282C40.5128 8.4282 39.8667 8.99359 39.8667 10.1244V20.7859C39.8667 21.7551 40.5936 22.3205 41.4013 22.3205H46.3282C47.2974 22.3205 47.8628 21.7551 47.8628 20.8667C47.8628 19.9782 47.2974 19.4128 46.3282 19.4128H42.9359V10.1244C42.9359 8.99359 42.2898 8.4282 41.4013 8.4282ZM48.509 10.1244C48.509 8.99359 49.1551 8.4282 50.0436 8.4282C50.9321 8.4282 51.5782 8.99359 51.5782 10.1244V19.4128H54.9705C55.9398 19.4128 56.5051 19.9782 56.5051 20.8667C56.5051 21.7551 55.9398 22.3205 54.9705 22.3205H50.0436C49.2359 22.3205 48.509 21.7551 48.509 20.7859V10.1244ZM61.0282 20.9474C61.0282 20.059 60.2205 19.2513 59.3321 19.2513C58.4436 19.2513 57.7167 20.059 57.6359 20.9474C57.6359 21.9167 58.4436 22.6436 59.3321 22.6436C60.2205 22.6436 61.0282 21.8359 61.0282 20.9474ZM63.3705 18.6859C63.7051 18.6859 64.0674 18.8245 64.4918 18.9868C65.092 19.2164 65.8166 19.4936 66.7628 19.4936C67.9744 19.4936 68.459 18.8474 68.459 18.2013C68.459 17.3474 67.6578 17.0811 66.403 16.6639C66.1147 16.5681 65.8025 16.4643 65.4705 16.3436C63.8551 15.859 62.159 15.132 62.159 12.6282C62.159 9.63974 64.5013 8.26666 67.0859 8.26666C69.5898 8.26666 70.9628 9.15512 70.9628 10.3667C70.9628 11.1744 70.3974 11.8205 69.5898 11.8205C69.1472 11.8205 68.8394 11.7195 68.5048 11.6097C68.1066 11.479 67.6705 11.3359 66.9244 11.3359C66.1167 11.3359 65.4705 11.7397 65.4705 12.4667C65.4705 13.1252 66.0075 13.3005 67.3442 13.7369C67.6468 13.8357 67.9905 13.9478 68.3782 14.082C70.0744 14.6474 71.6898 15.5359 71.6898 18.1205C71.6898 21.2705 69.3474 22.7244 66.4398 22.7244C64.5821 22.7244 61.8359 21.9974 61.8359 20.4628C61.9167 19.4936 62.4013 18.6859 63.3705 18.6859ZM74.0321 8.34743C73.1436 8.34743 72.4974 8.91282 72.4974 10.0436H72.5782V20.7051C72.5782 21.8359 73.2244 22.4013 74.1128 22.4013C75.0013 22.4013 75.6474 21.8359 75.6474 20.7051V16.182L79.8475 21.0282C80.3321 21.5936 80.9782 22.3205 81.7859 22.3205C82.5936 22.3205 83.4013 21.7551 83.4013 20.7859C83.4013 20.1397 82.9974 19.7359 82.5128 19.2513L78.4744 14.809L82.1898 11.0936C82.5128 10.7705 82.8359 10.3667 82.8359 9.88205C82.8359 8.99359 82.0282 8.34743 81.3013 8.34743C80.8167 8.34743 80.4936 8.4282 79.8475 9.15512L75.5667 13.8397V10.0436C75.5667 8.91282 74.9205 8.34743 74.0321 8.34743Z" fill="white"/>
</svg>
