<svg width="96" height="32" viewBox="0 0 96 32" fill="none" xmlns="http://www.w3.org/2000/svg">
<g clip-path="url(#clip0_5_5456)">
<path d="M46.4976 27H47.9428V4H46.4976V27ZM49.2008 27H50.661V4H49.2008V27Z" fill="#21D75F"/>
<path d="M32.2139 7.20496C31.1955 7.20496 30.6526 7.7516 30.6526 8.76999V22.2487C30.6526 23.2671 31.1955 23.8138 32.2139 23.8138H41.8399C42.1612 23.7962 42.4636 23.6562 42.6848 23.4226C42.9061 23.1889 43.0294 22.8794 43.0294 22.5576C43.0294 22.2359 42.9061 21.9263 42.6848 21.6927C42.4636 21.459 42.1612 21.319 41.8399 21.3015H33.8762V16.9471H40.4172C40.7385 16.9296 41.0408 16.7896 41.2621 16.5559C41.4833 16.3223 41.6066 16.0127 41.6066 15.691C41.6066 15.3692 41.4833 15.0596 41.2621 14.826C41.0408 14.5924 40.7385 14.4524 40.4172 14.4348H33.8762V9.71725H41.6003C41.7711 9.72657 41.9419 9.701 42.1024 9.64208C42.2629 9.58317 42.4097 9.49215 42.5339 9.37459C42.658 9.25703 42.7569 9.11539 42.8245 8.95833C42.8921 8.80127 42.9269 8.63208 42.9269 8.4611C42.9269 8.29012 42.8921 8.12093 42.8245 7.96387C42.7569 7.80681 42.658 7.66518 42.5339 7.54762C42.4097 7.43006 42.2629 7.33904 42.1024 7.28012C41.9419 7.22121 41.7711 7.19563 41.6003 7.20496H32.2139ZM27.1369 7.13382C26.4255 7.13382 25.8564 7.53818 25.6392 8.4143L22.5803 20.2906H22.5354L19.7385 8.9834C19.454 7.72913 18.6153 7.18249 17.6493 7.18249C16.6833 7.18249 15.8409 7.7516 15.5676 8.9834L12.797 20.2906H12.7483L9.71557 8.4143C9.47595 7.53818 8.90684 7.13382 8.173 7.13382C6.91873 7.13382 6.32341 8.12975 6.70531 9.50383L10.3071 22.0204C10.6404 23.2072 11.4678 23.8699 12.606 23.8699C13.7442 23.8699 14.6203 23.3008 14.9274 22.0204L17.6531 11.5668L20.3788 22.0204C20.712 23.3008 21.5432 23.8699 22.7039 23.8699C23.8645 23.8699 24.647 23.2784 25.0027 22.0204L28.6308 9.50383C29.0052 8.17842 28.4398 7.13382 27.1331 7.13382" fill="black"/>
<path fill-rule="evenodd" clip-rule="evenodd" d="M73.7322 15.588C73.7322 12.0386 76.1321 9.08822 80.1795 9.08822C84.4291 9.08822 86.5819 12.6376 86.5819 15.5056C86.5819 19.7776 83.5567 21.9529 80.056 21.9529C79.2206 21.958 78.3927 21.7965 77.6204 21.4779C76.8482 21.1593 76.1473 20.69 75.5585 20.0974C74.9697 19.5048 74.505 18.8008 74.1914 18.0265C73.8778 17.2523 73.7217 16.4233 73.7322 15.588ZM75.2261 15.5356C75.2261 18.5907 77.3452 20.6949 80.0934 20.6949V20.6987C82.9164 20.6987 85.1067 18.8004 85.1067 15.4869C85.1067 12.9297 83.377 10.3313 80.1795 10.3275C77.0981 10.3275 75.2261 12.4804 75.2261 15.5356Z" fill="black"/>
<path fill-rule="evenodd" clip-rule="evenodd" d="M89.3039 15.5019C89.3039 10.6982 85.4924 6.86047 80.1196 6.86047C74.2788 6.86047 71.0364 11.1699 71.0364 15.5767C71.0364 20.2044 74.6495 24.1882 79.996 24.1882C85.8631 24.1882 89.3039 20.006 89.3039 15.5019ZM87.8062 15.5213C87.8022 19.3708 84.9609 22.9376 80.0035 22.9376C75.4769 22.9376 72.4816 19.5155 72.4816 15.588C72.4816 11.8139 75.1474 8.09977 80.1308 8.09977C84.6601 8.09977 87.8047 11.4229 87.8062 15.5213ZM87.8062 15.5213L87.8062 15.5243V15.5131C87.8062 15.5158 87.8062 15.5186 87.8062 15.5213Z" fill="black"/>
<path fill-rule="evenodd" clip-rule="evenodd" d="M61.0809 21.7133C64.5666 21.7133 66.7232 19.4107 66.7232 15.4307C66.7232 11.4507 64.5666 9.2904 61.1295 9.2904H56.8837V21.7133H61.0809ZM58.3327 10.4024H60.6054C63.6905 10.4024 65.2293 12.0872 65.2293 15.4307C65.2293 18.8678 63.6905 20.5976 60.6054 20.5976H58.3327V10.4024Z" fill="black"/>
<path fill-rule="evenodd" clip-rule="evenodd" d="M61.65 23.7876C64.0462 23.7876 65.9669 23.005 67.4121 21.44C68.8574 19.8525 69.5912 17.8606 69.5912 15.4195C69.5912 12.9783 68.8087 10.9827 67.3635 9.46638C65.9182 7.95002 64.02 7.18996 61.65 7.18996H54.1805V23.7876H61.65ZM55.6032 8.31694H61.3167C65.5139 8.31694 68.0561 10.9378 68.0561 15.4307C68.0561 17.6585 67.4421 19.4369 66.2327 20.7399C65.0234 22.0428 63.3872 22.683 61.298 22.683H55.6032V8.31694Z" fill="black"/>
</g>
<defs>
<clipPath id="clip0_5_5456">
<rect width="82.6997" height="23" fill="white" transform="translate(6.58923 4)"/>
</clipPath>
</defs>
</svg>
